<svg xmlns="http://www.w3.org/2000/svg" viewBox="0 0 100 100" width="100" height="100">
  <circle cx="50" cy="50" r="50" fill="#E8C670" />
  <circle cx="50" cy="45" r="22" fill="#FADCA5" />
  <path d="M28 40 C28 20 72 20 72 40 C75 40 76 54 70 54 C68 40 32 40 30 54 C24 54 25 40 28 40 Z" fill="#E2E8F0" />
  <circle cx="43" cy="45" r="7" stroke="#120822" stroke-width="2.5" fill="none" />
  <circle cx="57" cy="45" r="7" stroke="#120822" stroke-width="2.5" fill="none" />
  <line x1="50" y1="45" x2="50" y2="45" stroke="#120822" stroke-width="3" />
  <path d="M42 58 Q50 64 58 58" stroke="#120822" stroke-width="3" stroke-linecap="round" fill="none" />
  <path d="M20 90 C20 72 32 68 50 68 C68 68 80 72 80 90 Z" fill="#4C2A7A" />
  <path d="M43 68 C43 74 57 74 57 68 Z" fill="#FADCA5" />
</svg>
